<svg width="480.8" height="151.1" viewBox="0 0 485 155" xmlns="http://www.w3.org/2000/svg">
    <defs>
        <linearGradient id="gradient">
            <stop offset="0%" stop-color="#c1d6e7" />
            <stop offset="25%" stop-color="#83bae1" />
            <stop offset="55%" stop-color="#1663a7" />
            <stop offset="75%" stop-color="#f472b6" />
            <stop offset="98%" stop-color="#f49fb6" />
        </linearGradient>
    </defs>
    <g id="svgGroup" stroke-linecap="round" fill-rule="evenodd" font-size="12pt" stroke-width="0.5mm"
        fill="none">
        <path
            fill="url(#gradient)" stroke="url(#gradient)"
            d="M 219.1 85.5 L 219.3 83.3 Q 219.3 82.5 218.9 82.5 L 218.3 82.9 A 77.324 77.324 0 0 1 214.667 88.425 A 67.058 67.058 0 0 1 213.3 90.25 Q 211.247 92.896 209.942 94.325 A 20.635 20.635 0 0 1 209.3 95 L 207.9 96.3 A 11.931 11.931 0 0 1 207.321 96.807 Q 206.451 97.516 205.922 97.591 A 0.86 0.86 0 0 1 205.8 97.6 A 0.579 0.579 0 0 1 205.246 97.246 Q 205.117 96.984 205.102 96.526 A 3.791 3.791 0 0 1 205.1 96.4 Q 205.1 95.313 205.562 93.902 A 16.079 16.079 0 0 1 206.1 92.5 Q 207.248 89.974 209.071 86.128 A 954.72 954.72 0 0 1 210.25 83.65 A 119.917 119.917 0 0 1 211.844 80.457 Q 214.825 74.673 220.85 63.95 Q 228.8 49.8 236.3 39 Q 243.9 28 248.1 24 A 12.38 12.38 0 0 1 248.723 23.416 Q 249.775 22.5 250.4 22.5 Q 250.877 22.5 250.899 23.229 A 2.391 2.391 0 0 1 250.9 23.3 Q 250.9 23.471 250.754 24.372 A 74.454 74.454 0 0 1 250.7 24.7 Q 249.918 28.174 245.14 36.7 A 217.072 217.072 0 0 1 243.6 39.4 Q 232.099 58.135 226.448 70.333 A 131.134 131.134 0 0 0 225.6 72.2 A 38.338 38.338 0 0 0 223.345 77.37 Q 221.9 81.55 221.9 85.3 Q 221.9 88.7 223.7 90.85 A 5.883 5.883 0 0 0 227.595 92.931 A 8.502 8.502 0 0 0 228.7 93 A 12.12 12.12 0 0 0 234.352 91.555 Q 236.015 90.689 237.644 89.306 A 19.62 19.62 0 0 0 237.65 89.3 Q 242 85.6 244.9 80.4 Q 247.8 75.2 249.6 69.8 A 46.066 46.066 0 0 0 250.549 66.591 Q 250.975 64.918 251.187 63.445 A 19.274 19.274 0 0 0 251.4 60.7 A 14.432 14.432 0 0 0 250.855 56.576 Q 249.286 51.31 243.2 49.9 Q 243.1 49.5 243.1 49.1 A 1.501 1.501 0 0 1 243.211 48.504 Q 243.477 47.883 244.382 47.719 A 3.181 3.181 0 0 1 244.5 47.7 A 18.987 18.987 0 0 0 257.252 42.814 A 24.96 24.96 0 0 0 258.2 41.95 Q 264.2 36.2 264.2 28.7 A 10.391 10.391 0 0 0 261.43 21.608 A 13.559 13.559 0 0 0 261.1 21.25 A 8.377 8.377 0 0 0 258.265 19.367 Q 255.62 18.244 251.471 18.044 A 38.867 38.867 0 0 0 249.6 18 Q 240.5 18 234.9 23 A 19.016 19.016 0 0 0 231.598 26.775 A 13.698 13.698 0 0 0 229.3 34.4 A 8.071 8.071 0 0 0 229.601 36.633 A 7.224 7.224 0 0 0 230 37.7 Q 230.4 38.5 230.4 39 A 0.864 0.864 0 0 1 230.37 39.238 Q 230.266 39.6 229.8 39.6 A 2.154 2.154 0 0 1 229.269 39.537 A 1.826 1.826 0 0 1 228.9 39.4 A 22.682 22.682 0 0 1 228.333 39.147 Q 228.079 39.03 227.796 38.893 A 47.899 47.899 0 0 1 227.2 38.6 A 3.66 3.66 0 0 1 226.623 38.229 Q 226.044 37.785 225.307 36.977 A 23.62 23.62 0 0 1 224.55 36.1 A 7.337 7.337 0 0 1 223.293 33.949 A 6.499 6.499 0 0 1 222.9 31.7 A 10.603 10.603 0 0 1 225.571 24.73 Q 227.551 22.373 231 20.35 A 33.652 33.652 0 0 1 241.778 16.392 A 46.827 46.827 0 0 1 250.6 15.6 Q 251.631 15.6 252.921 15.674 A 59.479 59.479 0 0 1 253.35 15.7 Q 254.519 15.776 256.795 16.249 A 83.408 83.408 0 0 1 258.4 16.6 Q 261.9 17.4 264.55 18.75 Q 267.2 20.1 269.3 23 A 11.056 11.056 0 0 1 271.367 28.841 A 13.828 13.828 0 0 1 271.4 29.8 Q 271.4 33.9 269.45 37.35 Q 267.5 40.8 264.25 43.15 Q 261 45.5 257.45 47 Q 253.9 48.5 250.1 49.3 Q 249.4 49.6 249.4 49.9 A 0.2 0.2 0 0 0 249.442 50.013 Q 249.559 50.18 250 50.4 A 4.449 4.449 0 0 0 250.205 50.528 Q 250.393 50.639 250.651 50.773 A 17.174 17.174 0 0 0 250.9 50.9 Q 251.5 51.2 252.95 52.5 Q 254.4 53.8 255.55 55.35 A 10.553 10.553 0 0 1 256.377 56.674 Q 256.749 57.371 257.089 58.21 A 23.242 23.242 0 0 1 257.6 59.6 A 17.9 17.9 0 0 1 258.5 65.277 A 20.184 20.184 0 0 1 258.5 65.3 A 29.62 29.62 0 0 1 252.3 83.4 A 39.214 39.214 0 0 1 249.95 86.25 A 31.573 31.573 0 0 1 243.016 92.1 A 24.166 24.166 0 0 1 230.2 95.7 A 17.855 17.855 0 0 1 227.044 95.44 Q 223.83 94.862 221.9 93 A 8.867 8.867 0 0 1 219.416 88.488 A 13.337 13.337 0 0 1 219.1 85.5 Z M 37.7 77.5 L 39 74.6 Q 42.4 67.5 42.4 59.5 A 36.662 36.662 0 0 0 41.366 50.594 A 28.196 28.196 0 0 0 37 41 Q 27.3 61.4 15.8 80 Q 14.7 81.8 13.3 83.9 Q 12.048 85.779 9.995 88.577 A 253.471 253.471 0 0 1 9.5 89.25 A 46.018 46.018 0 0 1 7.419 91.874 Q 6.342 93.129 5.286 94.144 A 25.905 25.905 0 0 1 4.8 94.6 A 14.146 14.146 0 0 1 3.694 95.519 Q 2.1 96.7 0.9 96.7 A 1.04 1.04 0 0 1 0.508 96.632 Q 0 96.426 0 95.6 L 0.1 94.7 Q 0.44 91.466 9.331 75.478 A 648.189 648.189 0 0 1 12.7 69.5 L 31.7 35.9 Q 27.9 33.5 23.2 33.5 A 12.203 12.203 0 0 0 20.146 33.862 A 8.61 8.61 0 0 0 15.95 36.3 Q 13.3 39.1 13.3 43.8 A 14.359 14.359 0 0 0 13.656 47.032 A 13.148 13.148 0 0 0 13.8 47.6 A 9.145 9.145 0 0 1 13.945 48.075 Q 14.067 48.519 14.093 48.836 A 2 2 0 0 1 14.1 49 Q 14.1 49.9 13.4 49.9 A 1.844 1.844 0 0 1 12.375 49.541 Q 11.227 48.767 9.885 46.326 A 27.526 27.526 0 0 1 9.5 45.6 A 27.554 27.554 0 0 1 8.34 43.04 Q 7.309 40.385 7.3 38.334 A 8.218 8.218 0 0 1 7.3 38.3 A 9.566 9.566 0 0 1 7.715 35.41 A 7.464 7.464 0 0 1 10.25 31.75 A 10.243 10.243 0 0 1 14.06 29.883 Q 15.88 29.4 18.1 29.4 A 27.896 27.896 0 0 1 27.405 30.916 A 25.291 25.291 0 0 1 33 33.7 L 42.9 16.2 A 7.429 7.429 0 0 1 43.318 15.811 Q 44.009 15.219 44.471 15.201 A 0.738 0.738 0 0 1 44.5 15.2 A 0.823 0.823 0 0 1 45.287 15.722 Q 45.468 16.103 45.495 16.761 A 5.835 5.835 0 0 1 45.5 17 A 14.516 14.516 0 0 1 45.125 19.951 Q 44.062 24.919 39.978 34.313 A 243.031 243.031 0 0 1 38.2 38.3 Q 45.516 46.982 45.696 61.089 A 56.035 56.035 0 0 1 45.7 61.8 A 5.419 5.419 0 0 0 45.775 62.127 Q 45.9 62.598 46.058 62.739 A 0.211 0.211 0 0 0 46.2 62.8 Q 46.5 62.8 46.8 62 Q 52.8 51.1 57.1 42.4 Q 62.286 31.938 68.392 24.955 A 55.564 55.564 0 0 1 69.85 23.35 Q 74.395 18.544 79.004 16.88 A 14.336 14.336 0 0 1 83.9 16 Q 85.4 16 85.4 16.6 Q 85.4 16.9 84.4 18.2 A 51.841 51.841 0 0 0 80.132 22.6 Q 75.745 27.632 70.524 35.51 A 232.689 232.689 0 0 0 67.25 40.6 Q 60.448 51.469 55.609 60.189 A 240.832 240.832 0 0 0 51.55 67.8 Q 46.406 77.908 43.143 84.896 A 285.148 285.148 0 0 0 42.4 86.5 A 93.29 93.29 0 0 1 40.785 89.935 Q 37.504 96.528 35.57 96.969 A 1.214 1.214 0 0 1 35.3 97 A 1.109 1.109 0 0 1 34.333 96.394 Q 33.7 95.367 33.7 92.6 Q 33.7 89.4 35 84.9 Q 36.3 80.4 37.7 77.5 Z M 179.3 78.8 L 183.5 70.6 A 0.666 0.666 0 0 0 183.492 70.494 Q 183.462 70.309 183.315 70.301 A 0.253 0.253 0 0 0 183.3 70.3 A 0.36 0.36 0 0 0 183.165 70.329 Q 183.05 70.376 182.909 70.498 A 2.098 2.098 0 0 0 182.8 70.6 Q 179.1 74.9 175 79.05 Q 171.861 82.228 169.836 84.145 A 77.626 77.626 0 0 1 168.7 85.2 L 166.5 87.2 A 78.019 78.019 0 0 1 163.635 89.792 Q 159.504 93.329 157.093 94.091 A 4.003 4.003 0 0 1 155.9 94.3 A 1.531 1.531 0 0 1 155.271 94.181 Q 154.618 93.889 154.518 92.886 A 3.896 3.896 0 0 1 154.5 92.5 A 7.494 7.494 0 0 1 154.62 91.253 Q 154.848 89.914 155.515 88.015 A 43.079 43.079 0 0 1 156.1 86.45 Q 157.7 82.4 159.3 79.4 L 160.9 76.3 Q 169.3 60.6 173.3 55.3 Q 175.3 52.7 178.2 50.95 A 22.016 22.016 0 0 1 179.569 50.185 Q 180.926 49.493 181.922 49.287 A 3.868 3.868 0 0 1 182.7 49.2 A 2.115 2.115 0 0 1 183.052 49.227 Q 183.678 49.333 183.699 49.862 A 0.941 0.941 0 0 1 183.7 49.9 A 1.128 1.128 0 0 1 183.665 50.164 Q 183.581 50.508 183.3 51 A 4.114 4.114 0 0 1 183.192 51.192 Q 182.696 52.039 180.126 56.165 A 2144.781 2144.781 0 0 1 179.2 57.65 A 261.923 261.923 0 0 0 176.486 62.092 Q 175.443 63.84 174.546 65.417 A 126.985 126.985 0 0 0 172.9 68.4 Q 167.455 78.383 166.502 81.355 A 3.448 3.448 0 0 0 166.3 82.3 Q 166.3 83 166.9 83 Q 167.685 83 169.459 81.63 A 24.443 24.443 0 0 0 170 81.2 Q 176.5 75.6 184.3 66.1 A 60.95 60.95 0 0 0 187.86 61.901 Q 190.509 58.494 193.3 54.1 Q 194.6 52.1 197.15 50.65 A 13.644 13.644 0 0 1 198.85 49.825 Q 199.783 49.454 200.648 49.303 A 6.709 6.709 0 0 1 201.8 49.2 A 1.474 1.474 0 0 1 202.14 49.236 Q 202.7 49.369 202.7 50 L 201.9 51.9 Q 200.756 53.942 197.31 59.955 A 5124.45 5124.45 0 0 1 195.65 62.85 A 5897.528 5897.528 0 0 0 194.504 64.848 Q 190.725 71.438 190.2 72.4 Q 189.546 73.626 187.525 77.153 A 968.121 968.121 0 0 1 186.55 78.85 Q 183.925 83.409 182.7 85.55 A 737.019 737.019 0 0 0 182.5 85.9 Q 186.437 82.713 189.515 80.073 A 180.206 180.206 0 0 0 192.9 77.1 Q 195.925 73.938 199.659 69.783 A 529.518 529.518 0 0 0 203.2 65.8 A 1.997 1.997 0 0 1 203.335 65.676 Q 203.474 65.561 203.588 65.521 A 0.341 0.341 0 0 1 203.7 65.5 A 0.16 0.16 0 0 1 203.849 65.599 Q 203.889 65.676 203.897 65.815 A 1.347 1.347 0 0 1 203.9 65.9 A 5.089 5.089 0 0 1 203.314 68.236 A 7.379 7.379 0 0 1 202.4 69.6 Q 198 74.4 194.8 77.8 Q 190.6 82.2 179.8 90.6 L 177.2 95.4 A 1983.987 1983.987 0 0 1 169.33 109.745 Q 159.356 127.734 153.676 136.85 A 139.275 139.275 0 0 1 150.6 141.6 Q 150.119 142.356 149.448 143.325 A 94.37 94.37 0 0 1 148.8 144.25 Q 147.885 145.539 146.003 147.589 A 88.895 88.895 0 0 1 145.2 148.45 A 19.049 19.049 0 0 1 144.154 149.483 Q 142.469 151.012 141.329 151.095 A 1.775 1.775 0 0 1 141.2 151.1 A 1.629 1.629 0 0 1 139.788 150.214 Q 138.953 148.873 138.824 145.503 A 34.049 34.049 0 0 1 138.8 144.2 Q 138.8 135.718 143.848 125.992 A 67.631 67.631 0 0 1 146.1 122 Q 154 109.1 170.5 95.5 Q 173.027 90.906 176.843 83.558 A 1289.618 1289.618 0 0 0 179.3 78.8 Z M 456.2 78.8 L 460.4 70.6 A 0.666 0.666 0 0 0 460.392 70.494 Q 460.362 70.309 460.215 70.301 A 0.253 0.253 0 0 0 460.2 70.3 A 0.36 0.36 0 0 0 460.065 70.329 Q 459.95 70.376 459.809 70.498 A 2.098 2.098 0 0 0 459.7 70.6 Q 456 74.9 451.9 79.05 Q 448.761 82.228 446.736 84.145 A 77.626 77.626 0 0 1 445.6 85.2 L 443.4 87.2 A 78.019 78.019 0 0 1 440.535 89.792 Q 436.404 93.329 433.993 94.091 A 4.003 4.003 0 0 1 432.8 94.3 A 1.531 1.531 0 0 1 432.171 94.181 Q 431.518 93.889 431.418 92.886 A 3.896 3.896 0 0 1 431.4 92.5 A 7.494 7.494 0 0 1 431.52 91.253 Q 431.748 89.914 432.415 88.015 A 43.079 43.079 0 0 1 433 86.45 Q 434.6 82.4 436.2 79.4 L 437.8 76.3 Q 446.2 60.6 450.2 55.3 Q 452.2 52.7 455.1 50.95 A 22.016 22.016 0 0 1 456.469 50.185 Q 457.826 49.493 458.822 49.287 A 3.868 3.868 0 0 1 459.6 49.2 A 2.115 2.115 0 0 1 459.952 49.227 Q 460.578 49.333 460.599 49.862 A 0.941 0.941 0 0 1 460.6 49.9 A 1.128 1.128 0 0 1 460.565 50.164 Q 460.481 50.508 460.2 51 A 4.114 4.114 0 0 1 460.092 51.192 Q 459.596 52.039 457.026 56.165 A 2144.781 2144.781 0 0 1 456.1 57.65 A 261.923 261.923 0 0 0 453.386 62.092 Q 452.343 63.84 451.446 65.417 A 126.985 126.985 0 0 0 449.8 68.4 Q 444.355 78.383 443.402 81.355 A 3.448 3.448 0 0 0 443.2 82.3 Q 443.2 83 443.8 83 Q 444.585 83 446.359 81.63 A 24.443 24.443 0 0 0 446.9 81.2 Q 453.4 75.6 461.2 66.1 A 60.95 60.95 0 0 0 464.76 61.901 Q 467.409 58.494 470.2 54.1 Q 471.5 52.1 474.05 50.65 A 13.644 13.644 0 0 1 475.75 49.825 Q 476.683 49.454 477.548 49.303 A 6.709 6.709 0 0 1 478.7 49.2 A 1.474 1.474 0 0 1 479.04 49.236 Q 479.6 49.369 479.6 50 L 478.8 51.9 Q 477.656 53.942 474.21 59.955 A 5124.45 5124.45 0 0 1 472.55 62.85 A 5897.528 5897.528 0 0 0 471.404 64.848 Q 467.625 71.438 467.1 72.4 Q 466.446 73.626 464.425 77.153 A 968.121 968.121 0 0 1 463.45 78.85 Q 460.825 83.409 459.6 85.55 A 737.019 737.019 0 0 0 459.4 85.9 Q 463.337 82.713 466.415 80.073 A 180.206 180.206 0 0 0 469.8 77.1 Q 472.825 73.938 476.559 69.783 A 529.518 529.518 0 0 0 480.1 65.8 A 1.997 1.997 0 0 1 480.235 65.676 Q 480.374 65.561 480.488 65.521 A 0.341 0.341 0 0 1 480.6 65.5 A 0.16 0.16 0 0 1 480.749 65.599 Q 480.789 65.676 480.797 65.815 A 1.347 1.347 0 0 1 480.8 65.9 A 5.089 5.089 0 0 1 480.214 68.236 A 7.379 7.379 0 0 1 479.3 69.6 Q 474.9 74.4 471.7 77.8 Q 467.5 82.2 456.7 90.6 L 454.1 95.4 A 1983.987 1983.987 0 0 1 446.23 109.745 Q 436.256 127.734 430.576 136.85 A 139.275 139.275 0 0 1 427.5 141.6 Q 427.019 142.356 426.348 143.325 A 94.37 94.37 0 0 1 425.7 144.25 Q 424.785 145.539 422.903 147.589 A 88.895 88.895 0 0 1 422.1 148.45 A 19.049 19.049 0 0 1 421.054 149.483 Q 419.369 151.012 418.229 151.095 A 1.775 1.775 0 0 1 418.1 151.1 A 1.629 1.629 0 0 1 416.688 150.214 Q 415.853 148.873 415.724 145.503 A 34.049 34.049 0 0 1 415.7 144.2 Q 415.7 135.718 420.748 125.992 A 67.631 67.631 0 0 1 423 122 Q 430.9 109.1 447.4 95.5 Q 449.927 90.906 453.743 83.558 A 1289.618 1289.618 0 0 0 456.2 78.8 Z M 320.4 95 L 319.1 95.6 A 1.156 1.156 0 0 1 318.728 95.545 Q 318.213 95.37 318.2 94.636 A 2.163 2.163 0 0 1 318.2 94.6 Q 318.2 93.118 319.746 89.488 A 57.84 57.84 0 0 1 320 88.9 Q 321.8 84.8 323.6 81.5 L 325.4 78.2 L 341 50.2 Q 354.872 25.698 364.31 11.882 A 166.106 166.106 0 0 1 370 4 A 40.475 40.475 0 0 1 371.062 2.641 Q 372.62 0.739 373.562 0.207 A 1.345 1.345 0 0 1 374.2 0 A 0.63 0.63 0 0 1 374.476 0.057 Q 374.8 0.213 374.8 0.8 A 5.223 5.223 0 0 1 374.647 1.929 Q 374.223 3.784 372.626 7.252 A 92.424 92.424 0 0 1 371.6 9.4 A 35788.164 35788.164 0 0 1 364.558 22.087 Q 356.798 36.062 352.27 44.179 A 3847.796 3847.796 0 0 1 349.8 48.6 Q 346.346 54.762 343.502 59.66 A 583.799 583.799 0 0 1 343.1 60.35 Q 340.337 65.093 339.059 67.249 A 250.568 250.568 0 0 1 338.85 67.6 A 526.542 526.542 0 0 0 337.962 69.098 Q 337.263 70.281 336.7 71.25 A 44.394 44.394 0 0 0 336.093 72.328 Q 335.616 73.204 335.3 73.9 A 1.89 1.89 0 0 0 335.2 74.491 A 1.801 1.801 0 0 0 335.2 74.5 Q 335.2 74.894 335.324 74.977 A 0.133 0.133 0 0 0 335.4 75 A 0.267 0.267 0 0 0 335.507 74.971 Q 335.731 74.869 336.2 74.4 Q 358.106 50.049 365.284 49.512 A 4.239 4.239 0 0 1 365.6 49.5 A 2.015 2.015 0 0 1 366.154 49.57 Q 366.775 49.748 366.94 50.382 A 2.063 2.063 0 0 1 367 50.9 Q 367 51.3 366.6 52.65 A 11.375 11.375 0 0 1 366.353 53.372 Q 365.784 54.897 364.3 58.1 A 69.303 69.303 0 0 1 362.408 61.86 Q 361.385 63.756 360.148 65.812 A 120.613 120.613 0 0 1 359.3 67.2 Q 357.845 69.344 355.804 72.895 A 204.962 204.962 0 0 0 354.5 75.2 Q 351.6 80.4 351.6 82 A 1.296 1.296 0 0 0 351.645 82.356 Q 351.759 82.756 352.167 82.862 A 1.326 1.326 0 0 0 352.5 82.9 Q 352.745 82.9 353.158 82.733 A 5.042 5.042 0 0 0 353.35 82.65 A 3.665 3.665 0 0 0 353.774 82.419 Q 353.988 82.286 354.221 82.108 A 8.626 8.626 0 0 0 354.6 81.8 A 67.501 67.501 0 0 0 355.26 81.227 Q 355.571 80.953 355.846 80.704 A 39.524 39.524 0 0 0 355.85 80.7 Q 356.4 80.2 357.45 79.25 Q 358.461 78.336 358.962 77.931 A 10.203 10.203 0 0 1 359 77.9 Q 362.216 74.685 367.014 69.3 A 469.371 469.371 0 0 0 370.1 65.8 A 1.997 1.997 0 0 1 370.235 65.676 Q 370.374 65.561 370.488 65.521 A 0.341 0.341 0 0 1 370.6 65.5 A 0.16 0.16 0 0 1 370.749 65.599 Q 370.789 65.676 370.797 65.815 A 1.347 1.347 0 0 1 370.8 65.9 A 5.089 5.089 0 0 1 370.214 68.236 A 7.379 7.379 0 0 1 369.3 69.6 Q 361.9 77.8 356.2 83.3 A 162.248 162.248 0 0 1 351.988 87.072 Q 343.488 94.4 340.4 94.4 A 1.669 1.669 0 0 1 339.735 94.278 Q 339.015 93.967 338.916 92.87 A 4.12 4.12 0 0 1 338.9 92.5 Q 338.9 89.768 341.262 84.875 A 63.813 63.813 0 0 1 343 81.55 A 285.647 285.647 0 0 1 348.614 71.917 A 241.568 241.568 0 0 1 351.15 67.85 A 161.833 161.833 0 0 0 352.099 66.345 Q 355.2 61.363 355.2 60.4 A 0.864 0.864 0 0 0 355.17 60.163 Q 355.066 59.8 354.6 59.8 Q 352.23 59.8 345.669 67.014 A 110.181 110.181 0 0 0 345.5 67.2 Q 340.109 73.155 336.077 78.138 A 167.787 167.787 0 0 0 334.2 80.5 Q 330.773 84.8 327.956 87.927 A 84.328 84.328 0 0 1 325.35 90.7 Q 322.392 93.698 321.02 94.642 A 3.594 3.594 0 0 1 320.4 95 Z M 382.2 79.5 L 384.1 76.3 A 2.635 2.635 0 0 0 384.293 76.027 Q 384.5 75.688 384.5 75.4 Q 384.5 75.2 384.3 75.2 A 0.667 0.667 0 0 0 384.051 75.256 Q 383.718 75.391 383.243 75.858 A 6.706 6.706 0 0 0 383.2 75.9 A 93.848 93.848 0 0 1 379.201 80.246 A 117.376 117.376 0 0 1 376.1 83.3 A 260.659 260.659 0 0 1 374.194 85.094 Q 371.475 87.625 369.6 89.2 L 367.2 91.2 Q 363.393 94.151 361.398 94.293 A 2.778 2.778 0 0 1 361.2 94.3 L 360.8 94.2 Q 359.151 94.103 359.102 91.372 A 9.47 9.47 0 0 1 359.1 91.2 A 26.307 26.307 0 0 1 359.983 84.67 Q 360.749 81.683 362.18 78.429 A 58.458 58.458 0 0 1 364.45 73.85 Q 369.8 64.1 378.3 56.9 A 39.041 39.041 0 0 1 383.684 53.026 Q 389.33 49.7 394.7 49.7 A 7.578 7.578 0 0 1 395.707 49.765 A 6.429 6.429 0 0 1 396.2 49.85 Q 396.9 50 397.25 50.1 Q 397.6 50.2 397.9 50.4 L 398.2 50.5 A 0.36 0.36 0 0 0 398.335 50.471 Q 398.45 50.424 398.591 50.302 A 2.098 2.098 0 0 0 398.7 50.2 Q 417.125 16.936 427.019 4.204 A 87.851 87.851 0 0 1 427.1 4.1 Q 430.1 0.1 431.4 0.1 Q 431.877 0.1 431.899 0.829 A 2.391 2.391 0 0 1 431.9 0.9 A 5.223 5.223 0 0 1 431.747 2.029 Q 431.323 3.884 429.726 7.352 A 92.424 92.424 0 0 1 428.7 9.5 Q 413.3 37.7 407.1 48.6 Q 396.717 67.121 393.946 71.817 A 92.322 92.322 0 0 1 393.6 72.4 Q 388.88 80.492 388.707 82.459 A 1.612 1.612 0 0 0 388.7 82.6 Q 388.7 83.3 389.3 83.3 A 1.757 1.757 0 0 0 389.731 83.242 Q 389.929 83.192 390.145 83.099 A 3.968 3.968 0 0 0 390.45 82.95 A 5.746 5.746 0 0 0 390.959 82.638 Q 391.228 82.455 391.518 82.221 A 12.171 12.171 0 0 0 391.9 81.9 Q 392.7 81.2 393.35 80.6 A 38.928 38.928 0 0 0 393.873 80.108 Q 394.105 79.885 394.362 79.633 A 79.086 79.086 0 0 0 394.9 79.1 L 396.1 77.9 Q 399.316 74.685 404.114 69.3 A 469.371 469.371 0 0 0 407.2 65.8 A 1.997 1.997 0 0 1 407.335 65.676 Q 407.474 65.561 407.588 65.521 A 0.341 0.341 0 0 1 407.7 65.5 A 0.16 0.16 0 0 1 407.849 65.599 Q 407.889 65.676 407.897 65.815 A 1.347 1.347 0 0 1 407.9 65.9 A 5.089 5.089 0 0 1 407.314 68.236 A 7.379 7.379 0 0 1 406.4 69.6 Q 399 77.8 393.3 83.3 A 161.467 161.467 0 0 1 389.16 87.038 Q 380.916 94.205 377.88 94.299 A 2.578 2.578 0 0 1 377.8 94.3 A 1.869 1.869 0 0 1 377.229 94.221 Q 376.621 94.025 376.459 93.353 A 2.365 2.365 0 0 1 376.4 92.8 A 5.788 5.788 0 0 1 376.519 91.713 Q 376.859 89.959 378.172 87.078 A 49.521 49.521 0 0 1 378.3 86.8 Q 380.2 82.7 382.2 79.5 Z M 73.4 79.4 L 75.2 76.3 A 10.404 10.404 0 0 0 75.336 76.055 Q 75.6 75.563 75.6 75.4 Q 75.6 75.2 75.4 75.2 A 0.551 0.551 0 0 0 75.183 75.257 Q 74.855 75.403 74.286 75.928 A 13.474 13.474 0 0 0 73.9 76.3 Q 70.9 79.6 67.05 83.35 Q 64.102 86.221 62.005 88.125 A 89.2 89.2 0 0 1 60.8 89.2 L 58.5 91.2 A 29.691 29.691 0 0 1 56.771 92.442 Q 55.08 93.558 53.815 93.966 A 4.334 4.334 0 0 1 52.5 94.2 Q 50.38 94.2 50.303 91.042 A 9.951 9.951 0 0 1 50.3 90.8 A 9.157 9.157 0 0 1 50.371 89.736 Q 50.56 88.143 51.25 85.6 Q 52.072 82.571 52.557 81.265 A 10.068 10.068 0 0 1 52.7 80.9 Q 55 75.3 58.45 70 Q 61.9 64.7 66.6 59.85 Q 71.3 55 77.55 52 Q 83.8 49 90.5 49 Q 96.1 49 96.1 50.7 A 0.722 0.722 0 0 1 95.703 51.338 Q 95.161 51.666 93.876 51.697 A 11.465 11.465 0 0 1 93.6 51.7 A 21.996 21.996 0 0 0 81.757 55.244 A 32.42 32.42 0 0 0 76.35 59.55 Q 68.3 67.4 63.3 77.6 A 18.616 18.616 0 0 0 62.577 79.223 Q 61.926 80.913 61.901 82.199 A 5.255 5.255 0 0 0 61.9 82.3 Q 61.9 83.4 62.6 83.4 Q 63.8 83.4 65.7 81.7 Q 66.9 80.6 68.95 78.8 Q 70.93 77.062 75.288 72.246 A 288.702 288.702 0 0 0 75.6 71.9 Q 79.535 67.537 82.08 63.687 A 45.449 45.449 0 0 0 82.9 62.4 A 7.743 7.743 0 0 1 83.228 61.815 Q 83.592 61.222 84.15 60.5 A 7.619 7.619 0 0 1 84.711 59.863 Q 85.341 59.214 86.357 58.379 A 42.52 42.52 0 0 1 87.4 57.55 Q 89.566 55.881 91.731 55.718 A 6.243 6.243 0 0 1 92.2 55.7 A 3.608 3.608 0 0 1 92.641 55.725 Q 93.5 55.831 93.5 56.4 A 0.454 0.454 0 0 1 93.482 56.515 Q 93.433 56.7 93.244 57.026 A 6.085 6.085 0 0 1 93.2 57.1 A 15.276 15.276 0 0 1 92.999 57.485 Q 92.453 58.5 90.95 61.1 Q 89.1 64.3 87.5 67.15 Q 85.9 70 84.1 73.35 Q 82.863 75.653 81.979 77.507 A 54.83 54.83 0 0 0 81.25 79.1 A 33.416 33.416 0 0 0 80.841 80.074 Q 80.308 81.405 80.218 82.062 A 1.777 1.777 0 0 0 80.2 82.3 A 1.052 1.052 0 0 0 80.221 82.523 Q 80.291 82.844 80.59 82.892 A 0.702 0.702 0 0 0 80.7 82.9 Q 82.112 82.9 87.337 77.758 A 117.411 117.411 0 0 0 88 77.1 Q 91.025 73.938 94.759 69.783 A 529.518 529.518 0 0 0 98.3 65.8 A 1.997 1.997 0 0 1 98.435 65.676 Q 98.574 65.561 98.688 65.521 A 0.341 0.341 0 0 1 98.8 65.5 A 0.16 0.16 0 0 1 98.949 65.599 Q 98.989 65.676 98.997 65.815 A 1.347 1.347 0 0 1 99 65.9 A 5.089 5.089 0 0 1 98.414 68.236 A 7.379 7.379 0 0 1 97.5 69.6 A 392.969 392.969 0 0 1 91.668 75.954 Q 85.623 82.387 80.974 86.633 A 117.624 117.624 0 0 1 80.9 86.7 A 95.759 95.759 0 0 1 77.97 89.283 Q 72.019 94.3 69.5 94.3 A 1.743 1.743 0 0 1 68.912 94.209 Q 68.143 93.934 68.102 92.826 A 3.444 3.444 0 0 1 68.1 92.7 A 6.932 6.932 0 0 1 68.231 91.449 Q 68.467 90.178 69.13 88.395 A 40.916 40.916 0 0 1 69.85 86.6 A 78.009 78.009 0 0 1 71.557 82.863 Q 72.472 80.999 73.4 79.4 Z M 419.3 79.4 L 421.1 76.3 A 10.404 10.404 0 0 0 421.236 76.055 Q 421.5 75.563 421.5 75.4 Q 421.5 75.2 421.3 75.2 A 0.551 0.551 0 0 0 421.083 75.257 Q 420.755 75.403 420.186 75.928 A 13.474 13.474 0 0 0 419.8 76.3 Q 416.8 79.6 412.95 83.35 Q 410.002 86.221 407.905 88.125 A 89.2 89.2 0 0 1 406.7 89.2 L 404.4 91.2 A 29.691 29.691 0 0 1 402.671 92.442 Q 400.98 93.558 399.715 93.966 A 4.334 4.334 0 0 1 398.4 94.2 Q 396.28 94.2 396.203 91.042 A 9.951 9.951 0 0 1 396.2 90.8 A 9.157 9.157 0 0 1 396.271 89.736 Q 396.46 88.143 397.15 85.6 Q 397.972 82.571 398.457 81.265 A 10.068 10.068 0 0 1 398.6 80.9 Q 400.9 75.3 404.35 70 Q 407.8 64.7 412.5 59.85 Q 417.2 55 423.45 52 Q 429.7 49 436.4 49 Q 442 49 442 50.7 A 0.722 0.722 0 0 1 441.603 51.338 Q 441.061 51.666 439.776 51.697 A 11.465 11.465 0 0 1 439.5 51.7 A 21.996 21.996 0 0 0 427.657 55.244 A 32.42 32.42 0 0 0 422.25 59.55 Q 414.2 67.4 409.2 77.6 A 18.616 18.616 0 0 0 408.477 79.223 Q 407.826 80.913 407.801 82.199 A 5.255 5.255 0 0 0 407.8 82.3 Q 407.8 83.4 408.5 83.4 Q 409.7 83.4 411.6 81.7 Q 412.8 80.6 414.85 78.8 Q 416.83 77.062 421.188 72.246 A 288.702 288.702 0 0 0 421.5 71.9 Q 425.435 67.537 427.98 63.687 A 45.449 45.449 0 0 0 428.8 62.4 A 7.743 7.743 0 0 1 429.128 61.815 Q 429.492 61.222 430.05 60.5 A 7.619 7.619 0 0 1 430.611 59.863 Q 431.241 59.214 432.257 58.379 A 42.52 42.52 0 0 1 433.3 57.55 Q 435.466 55.881 437.631 55.718 A 6.243 6.243 0 0 1 438.1 55.7 A 3.608 3.608 0 0 1 438.541 55.725 Q 439.4 55.831 439.4 56.4 A 0.454 0.454 0 0 1 439.382 56.515 Q 439.333 56.7 439.144 57.026 A 6.085 6.085 0 0 1 439.1 57.1 A 15.276 15.276 0 0 1 438.899 57.485 Q 438.353 58.5 436.85 61.1 Q 435 64.3 433.4 67.15 Q 431.8 70 430 73.35 Q 428.763 75.653 427.879 77.507 A 54.83 54.83 0 0 0 427.15 79.1 A 33.416 33.416 0 0 0 426.741 80.074 Q 426.208 81.405 426.118 82.062 A 1.777 1.777 0 0 0 426.1 82.3 A 1.052 1.052 0 0 0 426.121 82.523 Q 426.191 82.844 426.49 82.892 A 0.702 0.702 0 0 0 426.6 82.9 Q 428.012 82.9 433.237 77.758 A 117.411 117.411 0 0 0 433.9 77.1 Q 436.925 73.938 440.659 69.783 A 529.518 529.518 0 0 0 444.2 65.8 A 1.997 1.997 0 0 1 444.335 65.676 Q 444.474 65.561 444.588 65.521 A 0.341 0.341 0 0 1 444.7 65.5 A 0.16 0.16 0 0 1 444.849 65.599 Q 444.889 65.676 444.897 65.815 A 1.347 1.347 0 0 1 444.9 65.9 A 5.089 5.089 0 0 1 444.314 68.236 A 7.379 7.379 0 0 1 443.4 69.6 A 392.969 392.969 0 0 1 437.568 75.954 Q 431.523 82.387 426.874 86.633 A 117.624 117.624 0 0 1 426.8 86.7 A 95.759 95.759 0 0 1 423.87 89.283 Q 417.919 94.3 415.4 94.3 A 1.743 1.743 0 0 1 414.812 94.209 Q 414.043 93.934 414.002 92.826 A 3.444 3.444 0 0 1 414 92.7 A 6.932 6.932 0 0 1 414.131 91.449 Q 414.367 90.178 415.03 88.395 A 40.916 40.916 0 0 1 415.75 86.6 A 78.009 78.009 0 0 1 417.457 82.863 Q 418.372 80.999 419.3 79.4 Z M 109.6 56.6 L 107.9 59.9 A 0.963 0.963 0 0 0 107.819 60.125 A 0.817 0.817 0 0 0 107.8 60.3 A 0.666 0.666 0 0 0 107.808 60.406 Q 107.838 60.591 107.986 60.6 A 0.253 0.253 0 0 0 108 60.6 A 0.314 0.314 0 0 0 108.118 60.573 Q 108.287 60.503 108.544 60.255 A 4.17 4.17 0 0 0 108.6 60.2 A 5.806 5.806 0 0 1 108.842 59.833 Q 109.106 59.46 109.5 59 A 31.364 31.364 0 0 1 109.847 58.603 Q 110.364 58.021 111.293 57.01 A 346.2 346.2 0 0 1 111.9 56.35 Q 113.7 54.4 115.35 52.95 A 20.75 20.75 0 0 1 117.855 51.075 A 24.741 24.741 0 0 1 119.15 50.3 Q 121.3 49.1 123 49.1 A 3.24 3.24 0 0 1 126.099 51.014 Q 126.9 52.6 126.9 55.5 A 22.486 22.486 0 0 1 126.5 59.548 Q 125.786 63.431 123.8 68.3 A 0.378 0.378 0 0 1 123.782 68.388 Q 123.656 68.825 122.65 71.1 A 34.753 34.753 0 0 1 121.799 72.872 Q 120.719 74.981 119 77.8 Q 116.5 81.9 113.3 85.75 Q 110.1 89.6 105.35 92.4 A 20.457 20.457 0 0 1 99.927 94.664 A 17.744 17.744 0 0 1 95.6 95.2 A 9.849 9.849 0 0 1 93.888 95.057 A 8.344 8.344 0 0 1 93 94.85 A 15.032 15.032 0 0 1 92.34 94.642 Q 91.724 94.431 91.326 94.22 A 3.565 3.565 0 0 1 91.2 94.15 A 7.683 7.683 0 0 0 90.989 94.031 Q 90.658 93.852 90.486 93.812 A 0.385 0.385 0 0 0 90.4 93.8 L 89.7 94.2 Q 87.477 97.493 83.085 105.396 A 567.399 567.399 0 0 0 81.1 109 A 619.886 619.886 0 0 0 78.3 114.181 Q 74.589 121.131 72.055 126.364 A 209.264 209.264 0 0 0 71.7 127.1 Q 71.253 127.905 70.565 129.19 A 307.468 307.468 0 0 0 70.4 129.5 Q 69.742 130.734 68.07 133.591 A 473.585 473.585 0 0 1 67.3 134.9 A 131.943 131.943 0 0 1 65.199 138.348 Q 64.184 139.954 63.223 141.354 A 78.605 78.605 0 0 1 62.95 141.75 Q 60.9 144.7 58.45 147.15 A 15.631 15.631 0 0 1 57.307 148.193 Q 55.588 149.6 54.3 149.6 A 1.619 1.619 0 0 1 53.923 149.56 Q 53.418 149.439 53.322 148.949 A 1.301 1.301 0 0 1 53.3 148.7 Q 53.3 146.036 58.996 135.144 A 248.457 248.457 0 0 1 59.15 134.85 Q 65 123.7 70.9 113.8 L 76.8 104 Q 87.902 84.63 95.252 71.356 A 1116.627 1116.627 0 0 0 99.4 63.8 Q 99.553 63.494 99.823 62.983 A 103.395 103.395 0 0 1 100 62.65 A 53.65 53.65 0 0 1 100.213 62.255 Q 100.663 61.43 101.6 59.75 Q 102.8 57.6 103.9 55.65 Q 104.983 53.731 106.452 51.425 A 125.9 125.9 0 0 1 106.5 51.35 A 86.894 86.894 0 0 1 107.774 49.409 Q 108.569 48.235 109.3 47.25 Q 110.417 45.746 111.461 44.685 A 16.142 16.142 0 0 1 111.8 44.35 A 7.811 7.811 0 0 1 112.358 43.861 Q 112.93 43.408 113.395 43.266 A 1.382 1.382 0 0 1 113.8 43.2 Q 114.5 43.2 114.5 44 A 4.184 4.184 0 0 1 114.421 44.737 Q 114.187 46.016 113.256 48.392 A 60.848 60.848 0 0 1 112.85 49.4 Q 111.2 53.4 109.6 56.6 Z M 144.1 56.6 L 142.4 59.9 A 0.963 0.963 0 0 0 142.319 60.125 A 0.817 0.817 0 0 0 142.3 60.3 A 0.666 0.666 0 0 0 142.308 60.406 Q 142.338 60.591 142.486 60.6 A 0.253 0.253 0 0 0 142.5 60.6 A 0.314 0.314 0 0 0 142.618 60.573 Q 142.787 60.503 143.044 60.255 A 4.17 4.17 0 0 0 143.1 60.2 A 5.806 5.806 0 0 1 143.342 59.833 Q 143.606 59.46 144 59 A 31.364 31.364 0 0 1 144.347 58.603 Q 144.864 58.021 145.793 57.01 A 346.2 346.2 0 0 1 146.4 56.35 Q 148.2 54.4 149.85 52.95 A 20.75 20.75 0 0 1 152.355 51.075 A 24.741 24.741 0 0 1 153.65 50.3 Q 155.8 49.1 157.5 49.1 A 3.24 3.24 0 0 1 160.599 51.014 Q 161.4 52.6 161.4 55.5 A 22.486 22.486 0 0 1 161 59.548 Q 160.286 63.431 158.3 68.3 A 0.378 0.378 0 0 1 158.282 68.388 Q 158.156 68.825 157.15 71.1 A 34.753 34.753 0 0 1 156.299 72.872 Q 155.219 74.981 153.5 77.8 Q 151 81.9 147.8 85.75 Q 144.6 89.6 139.85 92.4 A 20.457 20.457 0 0 1 134.427 94.664 A 17.744 17.744 0 0 1 130.1 95.2 A 9.849 9.849 0 0 1 128.388 95.057 A 8.344 8.344 0 0 1 127.5 94.85 A 15.032 15.032 0 0 1 126.84 94.642 Q 126.224 94.431 125.826 94.22 A 3.565 3.565 0 0 1 125.7 94.15 A 7.683 7.683 0 0 0 125.489 94.031 Q 125.158 93.852 124.986 93.812 A 0.385 0.385 0 0 0 124.9 93.8 L 124.2 94.2 Q 121.977 97.493 117.585 105.396 A 567.399 567.399 0 0 0 115.6 109 A 619.886 619.886 0 0 0 112.8 114.181 Q 109.089 121.131 106.555 126.364 A 209.264 209.264 0 0 0 106.2 127.1 Q 105.753 127.905 105.065 129.19 A 307.468 307.468 0 0 0 104.9 129.5 Q 104.242 130.734 102.57 133.591 A 473.585 473.585 0 0 1 101.8 134.9 A 131.943 131.943 0 0 1 99.699 138.348 Q 98.684 139.954 97.723 141.354 A 78.605 78.605 0 0 1 97.45 141.75 Q 95.4 144.7 92.95 147.15 A 15.631 15.631 0 0 1 91.807 148.193 Q 90.088 149.6 88.8 149.6 A 1.619 1.619 0 0 1 88.423 149.56 Q 87.918 149.439 87.822 148.949 A 1.301 1.301 0 0 1 87.8 148.7 Q 87.8 146.036 93.496 135.144 A 248.457 248.457 0 0 1 93.65 134.85 Q 99.5 123.7 105.4 113.8 L 111.3 104 Q 122.402 84.63 129.752 71.356 A 1116.627 1116.627 0 0 0 133.9 63.8 Q 134.053 63.494 134.323 62.983 A 103.395 103.395 0 0 1 134.5 62.65 A 53.65 53.65 0 0 1 134.713 62.255 Q 135.163 61.43 136.1 59.75 Q 137.3 57.6 138.4 55.65 Q 139.483 53.731 140.952 51.425 A 125.9 125.9 0 0 1 141 51.35 A 86.894 86.894 0 0 1 142.274 49.409 Q 143.069 48.235 143.8 47.25 Q 144.917 45.746 145.961 44.685 A 16.142 16.142 0 0 1 146.3 44.35 A 7.811 7.811 0 0 1 146.858 43.861 Q 147.43 43.408 147.895 43.266 A 1.382 1.382 0 0 1 148.3 43.2 Q 149 43.2 149 44 A 4.184 4.184 0 0 1 148.921 44.737 Q 148.687 46.016 147.756 48.392 A 60.848 60.848 0 0 1 147.35 49.4 Q 145.7 53.4 144.1 56.6 Z M 306.1 79.4 L 307.7 76.3 Q 309.818 72.525 314.48 63.83 A 2537.259 2537.259 0 0 0 315.3 62.3 Q 320.6 52.4 325.55 43.6 Q 330.5 34.8 334.9 27.7 L 327 27.7 Q 326 27.7 326 27.2 A 0.73 0.73 0 0 1 326.12 26.813 Q 326.309 26.507 326.8 26.2 Q 327.6 25.7 328.5 25.7 A 160.805 160.805 0 0 0 329.8 25.694 Q 332.07 25.675 336.2 25.6 A 258.284 258.284 0 0 1 339.126 21.1 Q 342.145 16.567 344.523 13.499 A 76.262 76.262 0 0 1 344.6 13.4 A 41.139 41.139 0 0 1 345.696 12.075 Q 347.302 10.22 348.257 9.702 A 1.398 1.398 0 0 1 348.9 9.5 Q 349.6 9.5 349.6 10.4 A 4.667 4.667 0 0 1 349.418 11.549 Q 348.922 13.431 347.068 17.026 A 98.286 98.286 0 0 1 345.8 19.4 L 342.4 25.6 L 352.7 25.6 A 2.42 2.42 0 0 1 353.006 25.618 Q 353.327 25.659 353.475 25.797 A 0.396 0.396 0 0 1 353.6 26.1 A 1.316 1.316 0 0 1 352.763 27.357 Q 352.156 27.646 351.109 27.692 A 9.404 9.404 0 0 1 350.7 27.7 L 341.3 27.7 Q 321.147 65.912 317.663 72.386 A 72.684 72.684 0 0 1 317 73.6 A 111.448 111.448 0 0 0 315.573 76.298 Q 313.44 80.478 312.948 82.548 A 4.68 4.68 0 0 0 312.8 83.6 A 1.452 1.452 0 0 0 312.819 83.847 Q 312.898 84.3 313.3 84.3 Q 314.7 84.3 321.4 77.9 Q 324.616 74.685 329.414 69.3 A 469.371 469.371 0 0 0 332.5 65.8 A 1.997 1.997 0 0 1 332.635 65.676 Q 332.774 65.561 332.888 65.521 A 0.341 0.341 0 0 1 333 65.5 A 0.16 0.16 0 0 1 333.149 65.599 Q 333.189 65.676 333.197 65.815 A 1.347 1.347 0 0 1 333.2 65.9 A 5.089 5.089 0 0 1 332.614 68.236 A 7.379 7.379 0 0 1 331.7 69.6 Q 324.3 77.8 318.6 83.3 A 160.887 160.887 0 0 1 314.385 87.242 Q 305.91 94.863 302.731 94.9 A 2.656 2.656 0 0 1 302.7 94.9 A 1.531 1.531 0 0 1 302.071 94.781 Q 301.418 94.489 301.318 93.486 A 3.896 3.896 0 0 1 301.3 93.1 A 8.223 8.223 0 0 1 301.423 91.774 Q 301.656 90.369 302.327 88.387 A 45.444 45.444 0 0 1 302.9 86.8 Q 304.5 82.6 306.1 79.4 Z M 280.4 86.6 L 279.2 88.9 A 12.302 12.302 0 0 1 277.347 91.593 A 16.51 16.51 0 0 1 275.5 93.35 Q 273 95.4 270.3 95.4 A 4.204 4.204 0 0 1 269.833 95.377 Q 268.9 95.272 268.9 94.7 Q 268.9 94.211 269.464 92.86 A 28.571 28.571 0 0 1 269.75 92.2 Q 270.587 90.33 271.762 88.073 A 106.264 106.264 0 0 1 271.8 88 Q 273 85.7 274.2 83.5 A 695.493 695.493 0 0 0 274.775 82.444 Q 275.6 80.925 276.2 79.8 L 277.1 78.3 L 287.6 60 Q 292.069 51.575 296.86 49.322 A 8.245 8.245 0 0 1 300.4 48.5 Q 301.3 48.5 301.3 49.2 A 1.608 1.608 0 0 1 301.149 49.732 Q 300.489 51.322 296.95 56.65 A 239.682 239.682 0 0 0 295.447 58.939 Q 292.469 63.538 291.9 65 A 19.684 19.684 0 0 0 291.832 65.208 Q 291.718 65.562 291.702 65.672 A 0.209 0.209 0 0 0 291.7 65.7 Q 291.7 65.9 291.9 65.9 Q 292.1 65.9 292.6 65.4 A 121.244 121.244 0 0 1 307.437 51.146 A 111.804 111.804 0 0 1 308.5 50.3 Q 308.963 49.837 310.454 48.989 A 36.604 36.604 0 0 1 310.7 48.85 A 9.714 9.714 0 0 1 311.773 48.329 Q 312.333 48.101 312.841 47.994 A 4.183 4.183 0 0 1 313.7 47.9 A 1.567 1.567 0 0 1 315.196 48.859 Q 315.6 49.679 315.6 51.2 Q 315.6 53.781 314.367 57.08 A 33.007 33.007 0 0 1 313.2 59.8 Q 310.8 64.8 306.7 68.6 L 306.3 69 Q 305.9 69.3 305.45 69.65 Q 305 70 304.3 70.5 A 10.874 10.874 0 0 1 303.272 71.154 A 9.454 9.454 0 0 1 302.9 71.35 A 15.1 15.1 0 0 1 301.794 71.847 A 17.235 17.235 0 0 1 301.4 72 A 5.062 5.062 0 0 1 300.672 72.216 A 3.727 3.727 0 0 1 299.9 72.3 A 1.568 1.568 0 0 1 299.611 72.276 Q 299.1 72.179 299.1 71.7 Q 299.1 71.446 299.315 71.049 A 3.862 3.862 0 0 1 299.4 70.9 Q 304.328 63.215 305.14 59.577 A 5.94 5.94 0 0 0 305.3 58.3 Q 305.3 57.4 304.6 57.4 Q 301.6 57.4 290.5 71 Q 287.2 75.2 284.35 79.7 A 131.175 131.175 0 0 0 283.034 81.819 Q 281.686 84.041 280.884 85.607 A 25.572 25.572 0 0 0 280.4 86.6 Z M 259.1 77.6 L 260.9 74.4 A 745.83 745.83 0 0 1 264.469 68.219 Q 269.475 59.65 272.4 55.3 Q 274.1 52.8 276.75 51.05 Q 278.721 49.749 280.498 49.415 A 6.507 6.507 0 0 1 281.7 49.3 A 1.33 1.33 0 0 1 282.002 49.331 Q 282.414 49.428 282.485 49.822 A 1.002 1.002 0 0 1 282.5 50 Q 282.5 50.5 281.8 51.9 A 165.093 165.093 0 0 1 281.227 52.94 Q 279.719 55.656 275.9 62.4 Q 271.875 69.509 270.637 71.776 A 57.245 57.245 0 0 0 270.3 72.4 Q 266.2 79.6 266.2 82 Q 266.2 82.867 266.757 82.899 A 0.758 0.758 0 0 0 266.8 82.9 A 1.291 1.291 0 0 0 267.33 82.724 Q 268.552 82.096 271.75 79.224 A 130.52 130.52 0 0 0 273.2 77.9 Q 276.416 74.685 281.214 69.3 A 469.371 469.371 0 0 0 284.3 65.8 A 1.997 1.997 0 0 1 284.435 65.676 Q 284.574 65.561 284.688 65.521 A 0.341 0.341 0 0 1 284.8 65.5 A 0.16 0.16 0 0 1 284.949 65.599 Q 284.989 65.676 284.997 65.815 A 1.347 1.347 0 0 1 285 65.9 A 5.089 5.089 0 0 1 284.414 68.236 A 7.379 7.379 0 0 1 283.5 69.6 Q 276.1 77.8 270.4 83.3 A 177.579 177.579 0 0 1 266.308 87.038 Q 258.3 94.107 255.547 94.295 A 2.152 2.152 0 0 1 255.4 94.3 A 1.756 1.756 0 0 1 254.607 94.133 Q 253.872 93.766 253.732 92.592 A 5.041 5.041 0 0 1 253.7 92 A 8.55 8.55 0 0 1 253.842 90.54 Q 254.114 88.99 254.903 86.836 A 44.439 44.439 0 0 1 255.5 85.3 Q 257.18 81.192 258.861 78.043 A 55.036 55.036 0 0 1 259.1 77.6 Z M 145.6 138.4 L 146.3 137.4 A 449.36 449.36 0 0 0 153.964 124.931 Q 158.492 117.304 163.334 108.57 A 819.356 819.356 0 0 0 167.8 100.4 A 143.716 143.716 0 0 0 159.334 108.413 Q 152.572 115.394 148.6 121.8 A 32.707 32.707 0 0 0 148.015 122.714 Q 147.422 123.67 146.7 124.95 Q 145.871 126.42 144.587 129.482 A 141.675 141.675 0 0 0 143.7 131.65 A 35.998 35.998 0 0 0 142.698 134.468 Q 141.8 137.4 141.8 139.6 A 7.356 7.356 0 0 0 141.818 140.134 Q 141.903 141.3 142.4 141.3 A 0.819 0.819 0 0 0 142.696 141.235 Q 143.117 141.069 143.76 140.481 A 10.199 10.199 0 0 0 143.9 140.35 A 13.872 13.872 0 0 0 145.033 139.143 A 11.56 11.56 0 0 0 145.6 138.4 Z M 422.5 138.4 L 423.2 137.4 A 449.36 449.36 0 0 0 430.864 124.931 Q 435.392 117.304 440.234 108.57 A 819.356 819.356 0 0 0 444.7 100.4 A 143.716 143.716 0 0 0 436.234 108.413 Q 429.472 115.394 425.5 121.8 A 32.707 32.707 0 0 0 424.915 122.714 Q 424.322 123.67 423.6 124.95 Q 422.771 126.42 421.487 129.482 A 141.675 141.675 0 0 0 420.6 131.65 A 35.998 35.998 0 0 0 419.598 134.468 Q 418.7 137.4 418.7 139.6 A 7.356 7.356 0 0 0 418.718 140.134 Q 418.803 141.3 419.3 141.3 A 0.819 0.819 0 0 0 419.596 141.235 Q 420.017 141.069 420.66 140.481 A 10.199 10.199 0 0 0 420.8 140.35 A 13.872 13.872 0 0 0 421.933 139.143 A 11.56 11.56 0 0 0 422.5 138.4 Z M 96.6 82.2 L 92.5 89.4 Q 92 90.3 92 91.2 A 1.506 1.506 0 0 0 92.849 92.637 Q 93.542 93 94.8 93 Q 97.142 93 99.68 91.271 A 16.335 16.335 0 0 0 100.9 90.35 A 29.724 29.724 0 0 0 105.65 85.345 A 34.402 34.402 0 0 0 106.65 83.95 Q 109.2 80.2 111.35 76.45 A 79.602 79.602 0 0 0 112.787 73.838 Q 113.904 71.709 114.6 70 L 115.8 67.4 Q 117.727 62.583 118.226 59.688 A 10.674 10.674 0 0 0 118.4 57.9 A 4.356 4.356 0 0 0 118.343 57.16 Q 118.113 55.835 116.961 55.801 A 2.078 2.078 0 0 0 116.9 55.8 Q 116 55.8 115.1 56.4 Q 111.9 58.4 106.25 66.65 Q 100.6 74.9 96.6 82.2 Z M 131.1 82.2 L 127 89.4 Q 126.5 90.3 126.5 91.2 A 1.506 1.506 0 0 0 127.349 92.637 Q 128.042 93 129.3 93 Q 131.642 93 134.18 91.271 A 16.335 16.335 0 0 0 135.4 90.35 A 29.724 29.724 0 0 0 140.15 85.345 A 34.402 34.402 0 0 0 141.15 83.95 Q 143.7 80.2 145.85 76.45 A 79.602 79.602 0 0 0 147.287 73.838 Q 148.404 71.709 149.1 70 L 150.3 67.4 Q 152.227 62.583 152.726 59.688 A 10.674 10.674 0 0 0 152.9 57.9 A 4.356 4.356 0 0 0 152.843 57.16 Q 152.613 55.835 151.461 55.801 A 2.078 2.078 0 0 0 151.4 55.8 Q 150.5 55.8 149.6 56.4 Q 146.4 58.4 140.75 66.65 Q 135.1 74.9 131.1 82.2 Z M 397.4 52.6 L 397.3 52.3 Q 396.6 51.9 395.7 51.9 Q 391.4 51.9 385.05 58.3 Q 378.7 64.7 374.25 72.05 A 70.571 70.571 0 0 0 372.516 75.067 Q 370.038 79.659 369.821 82.142 A 5.26 5.26 0 0 0 369.8 82.6 A 2.614 2.614 0 0 0 369.845 83.111 Q 370.006 83.913 370.735 83.992 A 1.541 1.541 0 0 0 370.9 84 Q 372.1 84 374 82.3 Q 374.459 81.917 375.183 81.271 A 107.215 107.215 0 0 0 375.65 80.85 A 29.059 29.059 0 0 0 376.203 80.334 Q 377.356 79.233 379.7 76.85 Q 382.7 73.8 385.45 70.55 Q 388.2 67.3 391.55 62.5 Q 394.9 57.7 397.3 53 A 0.963 0.963 0 0 0 397.381 52.775 A 0.817 0.817 0 0 0 397.4 52.6 Z M 281.2 40.6 A 6.458 6.458 0 0 0 281.213 41.017 Q 281.38 43.6 283.7 43.6 A 5.051 5.051 0 0 0 285.254 43.355 Q 286.235 43.04 287.171 42.319 A 9.955 9.955 0 0 0 288.6 40.95 Q 289.498 39.915 290.046 38.857 A 7.231 7.231 0 0 0 290.9 35.5 A 7.358 7.358 0 0 0 290.897 35.294 Q 290.829 32.872 289.141 32.287 A 3.782 3.782 0 0 0 287.9 32.1 Q 286.103 32.1 284.513 33.573 A 9.759 9.759 0 0 0 283.3 34.95 Q 281.2 37.8 281.2 40.6 Z"
            vector-effect="non-scaling-stroke" />
    </g>
</svg>