<svg width="268.3" height="151" viewBox="0 0 270 155" xmlns="http://www.w3.org/2000/svg">
    <defs>
        <linearGradient id="gradient">
            <stop offset="0%" stop-color="#a7c6df" />
            <stop offset="25%" stop-color="#83bae1" />
            <stop offset="55%" stop-color="#1663a7" />
            <stop offset="75%" stop-color="#f472b6" />
            <stop offset="98%" stop-color="#f49fb6" />
        </linearGradient>
    </defs>
    <g id="svgGroup" stroke-linecap="round" fill-rule="evenodd" font-size="9pt" stroke="#000" stroke-width="0.5mm"
        fill="none">
        <path
            fill="url(#gradient)" stroke="url(#gradient)"
            d="M 243.7 78.7 L 247.9 70.5 A 0.666 0.666 0 0 0 247.892 70.395 Q 247.863 70.209 247.715 70.201 A 0.253 0.253 0 0 0 247.7 70.2 A 0.36 0.36 0 0 0 247.565 70.23 Q 247.45 70.277 247.309 70.398 A 2.098 2.098 0 0 0 247.2 70.5 Q 243.5 74.8 239.4 78.95 Q 236.261 82.128 234.236 84.045 A 77.626 77.626 0 0 1 233.1 85.1 L 230.9 87.1 A 78.019 78.019 0 0 1 228.035 89.692 Q 223.904 93.23 221.494 93.991 A 4.003 4.003 0 0 1 220.3 94.2 A 1.531 1.531 0 0 1 219.671 94.081 Q 219.018 93.789 218.918 92.786 A 3.896 3.896 0 0 1 218.9 92.4 A 7.494 7.494 0 0 1 219.02 91.153 Q 219.249 89.814 219.915 87.915 A 43.079 43.079 0 0 1 220.5 86.35 Q 222.1 82.3 223.7 79.3 L 225.3 76.2 Q 233.7 60.5 237.7 55.2 Q 239.7 52.6 242.6 50.85 A 22.016 22.016 0 0 1 243.969 50.085 Q 245.326 49.393 246.322 49.188 A 3.868 3.868 0 0 1 247.1 49.1 A 2.115 2.115 0 0 1 247.453 49.127 Q 248.078 49.233 248.099 49.763 A 0.941 0.941 0 0 1 248.1 49.8 A 1.128 1.128 0 0 1 248.065 50.064 Q 247.981 50.408 247.7 50.9 A 4.114 4.114 0 0 1 247.592 51.092 Q 247.096 51.939 244.526 56.065 A 2144.781 2144.781 0 0 1 243.6 57.55 A 261.923 261.923 0 0 0 240.886 61.992 Q 239.843 63.74 238.947 65.317 A 126.985 126.985 0 0 0 237.3 68.3 Q 231.855 78.284 230.902 81.255 A 3.448 3.448 0 0 0 230.7 82.2 Q 230.7 82.9 231.3 82.9 Q 232.085 82.9 233.86 81.531 A 24.443 24.443 0 0 0 234.4 81.1 Q 240.9 75.5 248.7 66 A 60.95 60.95 0 0 0 252.26 61.801 Q 254.909 58.394 257.7 54 Q 259 52 261.55 50.55 A 13.644 13.644 0 0 1 263.25 49.725 Q 264.183 49.354 265.048 49.204 A 6.709 6.709 0 0 1 266.2 49.1 A 1.474 1.474 0 0 1 266.54 49.136 Q 267.1 49.269 267.1 49.9 L 266.3 51.8 Q 265.156 53.843 261.711 59.855 A 5124.45 5124.45 0 0 1 260.05 62.75 A 5897.528 5897.528 0 0 0 258.904 64.748 Q 255.125 71.338 254.6 72.3 Q 253.947 73.526 251.925 77.053 A 968.121 968.121 0 0 1 250.95 78.75 Q 248.326 83.309 247.1 85.45 A 737.019 737.019 0 0 0 246.9 85.8 Q 250.837 82.613 253.915 79.973 A 180.206 180.206 0 0 0 257.3 77 Q 260.325 73.838 264.059 69.683 A 529.518 529.518 0 0 0 267.6 65.7 A 1.997 1.997 0 0 1 267.735 65.576 Q 267.874 65.461 267.988 65.421 A 0.341 0.341 0 0 1 268.1 65.4 A 0.16 0.16 0 0 1 268.249 65.499 Q 268.289 65.577 268.298 65.716 A 1.347 1.347 0 0 1 268.3 65.8 A 5.089 5.089 0 0 1 267.714 68.136 A 7.379 7.379 0 0 1 266.8 69.5 Q 262.4 74.3 259.2 77.7 Q 255 82.1 244.2 90.5 L 241.6 95.3 A 1983.987 1983.987 0 0 1 233.731 109.645 Q 223.757 127.634 218.076 136.751 A 139.275 139.275 0 0 1 215 141.5 Q 214.519 142.257 213.849 143.226 A 94.37 94.37 0 0 1 213.2 144.15 Q 212.285 145.439 210.403 147.489 A 88.895 88.895 0 0 1 209.6 148.35 A 19.049 19.049 0 0 1 208.554 149.383 Q 206.869 150.912 205.73 150.996 A 1.775 1.775 0 0 1 205.6 151 A 1.629 1.629 0 0 1 204.188 150.114 Q 203.353 148.773 203.224 145.403 A 34.049 34.049 0 0 1 203.2 144.1 Q 203.2 135.619 208.248 125.892 A 67.631 67.631 0 0 1 210.5 121.9 Q 218.4 109 234.9 95.4 Q 237.427 90.807 241.243 83.458 A 1289.618 1289.618 0 0 0 243.7 78.7 Z M 47.7 95.1 L 47.9 95.9 Q 48.1 96.9 48.1 97 A 1.753 1.753 0 0 1 48.054 97.422 Q 47.917 97.973 47.374 98.077 A 1.463 1.463 0 0 1 47.1 98.1 A 2.539 2.539 0 0 1 46.305 97.959 Q 45.597 97.725 44.733 97.101 A 11.105 11.105 0 0 1 44.4 96.85 Q 42.861 95.648 41.599 93.566 A 17.353 17.353 0 0 1 41.5 93.4 Q 39 89 39 80.1 A 73.985 73.985 0 0 1 39.895 69.092 Q 41.412 59.053 45.5 46.6 A 24.921 24.921 0 0 0 45.617 46.114 Q 45.768 45.454 45.794 45.126 A 1.57 1.57 0 0 0 45.8 45 A 1.83 1.83 0 0 0 45.786 44.763 Q 45.752 44.507 45.638 44.393 A 0.322 0.322 0 0 0 45.4 44.3 L 44.1 45.1 A 66.906 66.906 0 0 0 38.672 50.051 Q 36.173 52.574 33.53 55.662 A 154.496 154.496 0 0 0 28.1 62.4 A 106.761 106.761 0 0 0 22.92 69.719 A 119.036 119.036 0 0 0 22.1 71 Q 19.71 74.792 18.407 77.225 A 39.167 39.167 0 0 0 17.9 78.2 L 16.6 80.8 Q 14.2 86 9.3 91.7 Q 5.872 95.688 3.227 96.886 A 5.178 5.178 0 0 1 1.1 97.4 Q 0.227 97.4 0.047 96.708 A 1.621 1.621 0 0 1 0 96.3 L 0.3 95 A 25.527 25.527 0 0 1 0.962 93.383 Q 2.938 88.891 9.6 75.85 A 1096.604 1096.604 0 0 1 13.494 68.297 Q 17.297 60.995 20.222 55.7 A 278.876 278.876 0 0 1 22.7 51.3 Q 27.4 43.2 31.9 36 Q 36.232 29.069 38.433 25.938 A 62.213 62.213 0 0 1 38.6 25.7 L 40.8 22.5 Q 41.275 21.835 42.021 20.854 A 127.458 127.458 0 0 1 42.1 20.75 A 5.993 5.993 0 0 1 42.606 20.179 Q 43.515 19.261 45.359 17.93 A 49.521 49.521 0 0 1 45.4 17.9 A 11.872 11.872 0 0 1 47.261 16.79 Q 48.8 16.063 50.3 16 Q 51.173 16 51.353 16.693 A 1.621 1.621 0 0 1 51.4 17.1 A 2.394 2.394 0 0 1 51.318 17.702 Q 51.197 18.166 50.9 18.7 A 706.482 706.482 0 0 0 44.956 28.382 Q 39.297 37.779 35.579 44.757 A 164.84 164.84 0 0 0 32.6 50.6 A 9.332 9.332 0 0 0 32.543 50.989 Q 32.5 51.338 32.5 51.6 Q 32.5 52.2 32.8 52.2 Q 33.171 52.2 33.888 51.511 A 8.342 8.342 0 0 0 34 51.4 L 44.2 41.1 A 395.676 395.676 0 0 1 53.337 32.431 Q 71.725 15.582 77.9 15.5 Q 80.7 15.5 80.7 18.8 A 9.66 9.66 0 0 1 80.154 21.941 A 13.243 13.243 0 0 1 79.15 24.15 A 12.579 12.579 0 0 1 78.491 25.205 Q 77.788 26.206 77.117 26.616 A 1.752 1.752 0 0 1 76.2 26.9 Q 75.663 26.9 75.527 26.259 A 1.891 1.891 0 0 1 75.5 26.1 L 75.25 25.35 Q 75.1 24.9 74.2 24.1 A 3.149 3.149 0 0 0 72.206 23.306 A 4.075 4.075 0 0 0 72 23.3 Q 67.508 23.3 59.729 30.275 A 71.704 71.704 0 0 0 59.7 30.3 Q 57.725 31.909 56.928 33.091 A 3.693 3.693 0 0 0 56.5 33.9 Q 53.3 42.3 50.2 60.45 Q 47.752 74.785 47.237 83.225 A 67.488 67.488 0 0 0 47.1 87.3 A 67.037 67.037 0 0 0 47.138 89.626 Q 47.175 90.687 47.248 91.633 A 38.209 38.209 0 0 0 47.3 92.25 Q 47.5 94.4 47.7 95.1 Z M 206.7 79.4 L 208.6 76.2 A 2.635 2.635 0 0 0 208.793 75.927 Q 209 75.588 209 75.3 Q 209 75.1 208.8 75.1 A 0.667 0.667 0 0 0 208.551 75.156 Q 208.218 75.291 207.743 75.758 A 6.706 6.706 0 0 0 207.7 75.8 A 93.848 93.848 0 0 1 203.702 80.146 A 117.376 117.376 0 0 1 200.6 83.2 A 260.659 260.659 0 0 1 198.694 84.994 Q 195.975 87.525 194.1 89.1 L 191.7 91.1 Q 187.893 94.051 185.898 94.193 A 2.778 2.778 0 0 1 185.7 94.2 L 185.3 94.1 Q 183.651 94.003 183.602 91.273 A 9.47 9.47 0 0 1 183.6 91.1 A 26.307 26.307 0 0 1 184.483 84.571 Q 185.249 81.583 186.68 78.329 A 58.458 58.458 0 0 1 188.95 73.75 Q 194.3 64 202.8 56.8 A 39.041 39.041 0 0 1 208.184 52.927 Q 213.831 49.6 219.2 49.6 A 7.578 7.578 0 0 1 220.207 49.665 A 6.429 6.429 0 0 1 220.7 49.75 Q 221.4 49.9 221.75 50 Q 222.1 50.1 222.4 50.3 L 222.7 50.4 A 0.36 0.36 0 0 0 222.835 50.371 Q 222.95 50.324 223.091 50.203 A 2.098 2.098 0 0 0 223.2 50.1 Q 241.625 16.836 251.52 4.104 A 87.851 87.851 0 0 1 251.6 4 Q 254.6 0 255.9 0 Q 256.377 0 256.399 0.73 A 2.391 2.391 0 0 1 256.4 0.8 A 5.223 5.223 0 0 1 256.247 1.93 Q 255.823 3.784 254.226 7.252 A 92.424 92.424 0 0 1 253.2 9.4 Q 237.8 37.6 231.6 48.5 Q 221.217 67.021 218.447 71.718 A 92.322 92.322 0 0 1 218.1 72.3 Q 213.38 80.393 213.207 82.36 A 1.612 1.612 0 0 0 213.2 82.5 Q 213.2 83.2 213.8 83.2 A 1.757 1.757 0 0 0 214.231 83.143 Q 214.429 83.093 214.645 82.999 A 3.968 3.968 0 0 0 214.95 82.85 A 5.746 5.746 0 0 0 215.459 82.539 Q 215.728 82.355 216.018 82.121 A 12.171 12.171 0 0 0 216.4 81.8 Q 217.2 81.1 217.85 80.5 A 38.928 38.928 0 0 0 218.373 80.008 Q 218.605 79.786 218.862 79.534 A 79.086 79.086 0 0 0 219.4 79 L 220.6 77.8 Q 223.816 74.585 228.614 69.2 A 469.371 469.371 0 0 0 231.7 65.7 A 1.997 1.997 0 0 1 231.835 65.576 Q 231.974 65.461 232.088 65.421 A 0.341 0.341 0 0 1 232.2 65.4 A 0.16 0.16 0 0 1 232.349 65.499 Q 232.389 65.577 232.398 65.716 A 1.347 1.347 0 0 1 232.4 65.8 A 5.089 5.089 0 0 1 231.814 68.136 A 7.379 7.379 0 0 1 230.9 69.5 Q 223.5 77.7 217.8 83.2 A 161.467 161.467 0 0 1 213.66 86.939 Q 205.416 94.105 202.38 94.199 A 2.578 2.578 0 0 1 202.3 94.2 A 1.869 1.869 0 0 1 201.729 94.121 Q 201.121 93.926 200.959 93.253 A 2.365 2.365 0 0 1 200.9 92.7 A 5.788 5.788 0 0 1 201.019 91.613 Q 201.359 89.859 202.672 86.979 A 49.521 49.521 0 0 1 202.8 86.7 Q 204.7 82.6 206.7 79.4 Z M 112.9 59.5 L 111.5 60 Q 107.11 63.15 101.081 69.624 A 151.112 151.112 0 0 0 100.5 70.25 A 262.219 262.219 0 0 0 96.024 75.231 Q 92.563 79.188 90 82.5 L 85.9 87.7 Q 85.009 89.003 84.259 89.977 A 27.719 27.719 0 0 1 83.6 90.8 A 8.718 8.718 0 0 1 82.647 91.767 Q 82.123 92.227 81.47 92.679 A 17.505 17.505 0 0 1 80.75 93.15 A 7.98 7.98 0 0 1 78.946 93.995 A 6.418 6.418 0 0 1 77 94.3 Q 76.109 94.3 75.785 93.976 A 0.644 0.644 0 0 1 75.6 93.5 Q 75.6 92.747 77.284 89.292 A 96.664 96.664 0 0 1 77.5 88.85 Q 79.4 85 81.3 81.5 L 83.2 78.1 L 93 60.9 Q 94.236 58.84 95.099 57.561 A 31.193 31.193 0 0 1 95.45 57.05 Q 96.4 55.7 98.1 53.65 A 13.934 13.934 0 0 1 99.749 51.959 A 10.304 10.304 0 0 1 101.75 50.6 Q 103.7 49.6 105.9 49.4 A 1.33 1.33 0 0 1 106.202 49.432 Q 106.614 49.528 106.685 49.922 A 1.002 1.002 0 0 1 106.7 50.1 A 1.984 1.984 0 0 1 106.651 50.555 A 1.45 1.45 0 0 1 106.4 51.1 Q 104.1 54.7 99.35 63 A 1264.676 1264.676 0 0 0 97.437 66.354 Q 95.047 70.56 93.892 72.691 A 74.096 74.096 0 0 0 93.3 73.8 Q 93.07 74.262 93.016 74.546 A 0.846 0.846 0 0 0 93 74.7 Q 93 74.9 93.2 74.9 Q 93.4 74.9 94.2 74.3 Q 96.1 72.1 99.15 68.8 Q 102.2 65.5 109.5 58.85 Q 116.8 52.2 121.5 49.9 A 5.975 5.975 0 0 1 122.509 49.542 A 4.452 4.452 0 0 1 123.6 49.4 A 1.743 1.743 0 0 1 124.188 49.491 Q 124.957 49.766 124.998 50.875 A 3.444 3.444 0 0 1 125 51 Q 124.2 55.7 117.3 67.1 A 277.379 277.379 0 0 0 114.717 71.429 Q 109.7 80.032 109.7 81.9 A 1.33 1.33 0 0 0 109.731 82.202 Q 109.828 82.614 110.222 82.686 A 1.002 1.002 0 0 0 110.4 82.7 A 1.757 1.757 0 0 0 110.831 82.643 Q 111.029 82.593 111.245 82.499 A 3.968 3.968 0 0 0 111.55 82.35 A 7.045 7.045 0 0 0 112.103 82.017 Q 112.367 81.841 112.651 81.625 A 13.901 13.901 0 0 0 113 81.35 A 43.812 43.812 0 0 0 113.565 80.884 Q 113.841 80.652 114.079 80.443 A 22.051 22.051 0 0 0 114.35 80.2 Q 114.771 79.818 115.397 79.23 A 187.644 187.644 0 0 0 115.8 78.85 A 302.575 302.575 0 0 0 116.113 78.555 Q 116.738 77.963 116.9 77.8 A 130.892 130.892 0 0 0 119.169 75.469 Q 121.683 72.827 124.914 69.2 A 469.371 469.371 0 0 0 128 65.7 A 1.997 1.997 0 0 1 128.135 65.576 Q 128.274 65.461 128.388 65.421 A 0.341 0.341 0 0 1 128.5 65.4 A 0.16 0.16 0 0 1 128.649 65.499 Q 128.689 65.577 128.698 65.716 A 1.347 1.347 0 0 1 128.7 65.8 A 5.089 5.089 0 0 1 128.114 68.136 A 7.379 7.379 0 0 1 127.2 69.5 Q 119.8 77.7 114.1 83.2 A 159.29 159.29 0 0 1 109.994 86.939 Q 101.706 94.2 98.7 94.2 Q 97.344 94.2 97.07 93.055 A 2.817 2.817 0 0 1 97 92.4 A 6.242 6.242 0 0 1 97.059 91.579 Q 97.172 90.733 97.5 89.65 Q 98 88 98.75 86.35 Q 99.5 84.7 100.2 83.3 Q 100.9 81.9 101.6 80.7 A 63.846 63.846 0 0 0 101.764 80.418 Q 102.287 79.511 102.3 79.405 A 0.04 0.04 0 0 0 102.3 79.4 Q 103.449 77.333 105.476 74.006 A 380.619 380.619 0 0 1 106.8 71.85 Q 109.484 67.512 111.207 64.534 A 144.958 144.958 0 0 0 111.6 63.85 A 59.305 59.305 0 0 0 112.212 62.755 Q 113.352 60.658 113.398 60.049 A 0.645 0.645 0 0 0 113.4 60 A 0.72 0.72 0 0 0 113.375 59.803 Q 113.289 59.5 112.9 59.5 Z M 150.8 59.5 L 149.4 60 Q 145.01 63.15 138.981 69.624 A 151.112 151.112 0 0 0 138.4 70.25 A 262.219 262.219 0 0 0 133.924 75.231 Q 130.463 79.188 127.9 82.5 L 123.8 87.7 Q 122.909 89.003 122.159 89.977 A 27.719 27.719 0 0 1 121.5 90.8 A 8.718 8.718 0 0 1 120.547 91.767 Q 120.023 92.227 119.37 92.679 A 17.505 17.505 0 0 1 118.65 93.15 A 7.98 7.98 0 0 1 116.846 93.995 A 6.418 6.418 0 0 1 114.9 94.3 Q 114.009 94.3 113.685 93.976 A 0.644 0.644 0 0 1 113.5 93.5 Q 113.5 92.747 115.184 89.292 A 96.664 96.664 0 0 1 115.4 88.85 Q 117.3 85 119.2 81.5 L 121.1 78.1 L 130.9 60.9 Q 132.136 58.84 132.999 57.561 A 31.193 31.193 0 0 1 133.35 57.05 Q 134.3 55.7 136 53.65 A 13.934 13.934 0 0 1 137.649 51.959 A 10.304 10.304 0 0 1 139.65 50.6 Q 141.6 49.6 143.8 49.4 A 1.33 1.33 0 0 1 144.102 49.432 Q 144.514 49.528 144.585 49.922 A 1.002 1.002 0 0 1 144.6 50.1 A 1.984 1.984 0 0 1 144.551 50.555 A 1.45 1.45 0 0 1 144.3 51.1 Q 142 54.7 137.25 63 A 1264.676 1264.676 0 0 0 135.337 66.354 Q 132.947 70.56 131.792 72.691 A 74.096 74.096 0 0 0 131.2 73.8 Q 130.97 74.262 130.916 74.546 A 0.846 0.846 0 0 0 130.9 74.7 Q 130.9 74.9 131.1 74.9 Q 131.3 74.9 132.1 74.3 Q 134 72.1 137.05 68.8 Q 140.1 65.5 147.4 58.85 Q 154.7 52.2 159.4 49.9 A 5.975 5.975 0 0 1 160.409 49.542 A 4.452 4.452 0 0 1 161.5 49.4 A 1.743 1.743 0 0 1 162.088 49.491 Q 162.857 49.766 162.898 50.875 A 3.444 3.444 0 0 1 162.9 51 Q 162.1 55.7 155.2 67.1 A 277.379 277.379 0 0 0 152.617 71.429 Q 147.6 80.032 147.6 81.9 A 1.33 1.33 0 0 0 147.631 82.202 Q 147.728 82.614 148.122 82.686 A 1.002 1.002 0 0 0 148.3 82.7 A 1.757 1.757 0 0 0 148.731 82.643 Q 148.929 82.593 149.145 82.499 A 3.968 3.968 0 0 0 149.45 82.35 A 7.045 7.045 0 0 0 150.003 82.017 Q 150.267 81.841 150.551 81.625 A 13.901 13.901 0 0 0 150.9 81.35 A 43.812 43.812 0 0 0 151.465 80.884 Q 151.741 80.652 151.979 80.443 A 22.051 22.051 0 0 0 152.25 80.2 Q 152.671 79.818 153.297 79.23 A 187.644 187.644 0 0 0 153.7 78.85 A 302.575 302.575 0 0 0 154.013 78.555 Q 154.638 77.963 154.8 77.8 A 130.892 130.892 0 0 0 157.069 75.469 Q 159.583 72.827 162.814 69.2 A 469.371 469.371 0 0 0 165.9 65.7 A 1.997 1.997 0 0 1 166.035 65.576 Q 166.174 65.461 166.288 65.421 A 0.341 0.341 0 0 1 166.4 65.4 A 0.16 0.16 0 0 1 166.549 65.499 Q 166.589 65.577 166.598 65.716 A 1.347 1.347 0 0 1 166.6 65.8 A 5.089 5.089 0 0 1 166.014 68.136 A 7.379 7.379 0 0 1 165.1 69.5 Q 157.7 77.7 152 83.2 A 159.29 159.29 0 0 1 147.894 86.939 Q 139.606 94.2 136.6 94.2 Q 135.244 94.2 134.97 93.055 A 2.817 2.817 0 0 1 134.9 92.4 A 6.242 6.242 0 0 1 134.959 91.579 Q 135.072 90.733 135.4 89.65 Q 135.9 88 136.65 86.35 Q 137.4 84.7 138.1 83.3 Q 138.8 81.9 139.5 80.7 A 63.846 63.846 0 0 0 139.664 80.418 Q 140.187 79.511 140.2 79.405 A 0.04 0.04 0 0 0 140.2 79.4 Q 141.349 77.333 143.376 74.006 A 380.619 380.619 0 0 1 144.7 71.85 Q 147.384 67.512 149.107 64.534 A 144.958 144.958 0 0 0 149.5 63.85 A 59.305 59.305 0 0 0 150.112 62.755 Q 151.252 60.658 151.298 60.049 A 0.645 0.645 0 0 0 151.3 60 A 0.72 0.72 0 0 0 151.275 59.803 Q 151.189 59.5 150.8 59.5 Z M 89.743 66.108 A 587.322 587.322 0 0 0 90.1 65.7 A 1.997 1.997 0 0 1 90.235 65.576 Q 90.374 65.461 90.488 65.421 A 0.341 0.341 0 0 1 90.6 65.4 A 0.16 0.16 0 0 1 90.749 65.499 Q 90.789 65.577 90.798 65.716 A 1.347 1.347 0 0 1 90.8 65.8 A 5.089 5.089 0 0 1 90.214 68.136 A 7.379 7.379 0 0 1 89.3 69.5 Q 81.9 77.7 76.2 83.2 A 58.236 58.236 0 0 1 70.969 87.815 A 74.018 74.018 0 0 1 66.2 91.25 A 36.631 36.631 0 0 1 63.178 93.068 Q 60.052 94.733 57.634 95.034 A 8.364 8.364 0 0 1 56.6 95.1 A 4.605 4.605 0 0 1 54.402 94.608 Q 52.5 93.593 52.104 90.482 A 14.148 14.148 0 0 1 52 88.7 Q 52 78.1 59.85 66.5 A 51.796 51.796 0 0 1 66.357 58.582 Q 71.724 53.299 78 50.8 A 26.758 26.758 0 0 1 81.3 49.652 Q 83.021 49.184 84.593 49.052 A 14.46 14.46 0 0 1 85.8 49 A 7.201 7.201 0 0 1 87.224 49.128 Q 89.431 49.576 89.671 51.587 A 4.338 4.338 0 0 1 89.7 52.1 Q 89.7 57.053 83.721 63.245 A 49.944 49.944 0 0 1 81.5 65.4 Q 73.3 72.9 63.1 76.8 Q 62.715 76.897 62.422 77.458 A 2.781 2.781 0 0 0 62.4 77.5 A 28.831 28.831 0 0 0 61.457 80.566 Q 60.9 82.85 60.9 84.8 A 7.055 7.055 0 0 0 61.009 86.103 Q 61.443 88.4 63.6 88.4 A 7.943 7.943 0 0 0 66.391 87.828 Q 68.901 86.878 72.064 84.356 A 50.088 50.088 0 0 0 74.9 81.9 Q 80.104 77.089 89.743 66.108 Z M 194.243 66.108 A 587.322 587.322 0 0 0 194.6 65.7 A 1.997 1.997 0 0 1 194.735 65.576 Q 194.874 65.461 194.988 65.421 A 0.341 0.341 0 0 1 195.1 65.4 A 0.16 0.16 0 0 1 195.249 65.499 Q 195.289 65.577 195.298 65.716 A 1.347 1.347 0 0 1 195.3 65.8 A 5.089 5.089 0 0 1 194.714 68.136 A 7.379 7.379 0 0 1 193.8 69.5 Q 186.4 77.7 180.7 83.2 A 58.236 58.236 0 0 1 175.469 87.815 A 74.018 74.018 0 0 1 170.7 91.25 A 36.631 36.631 0 0 1 167.678 93.068 Q 164.552 94.733 162.134 95.034 A 8.364 8.364 0 0 1 161.1 95.1 A 4.605 4.605 0 0 1 158.902 94.608 Q 157 93.593 156.604 90.482 A 14.148 14.148 0 0 1 156.5 88.7 Q 156.5 78.1 164.35 66.5 A 51.796 51.796 0 0 1 170.857 58.582 Q 176.224 53.299 182.5 50.8 A 26.758 26.758 0 0 1 185.8 49.652 Q 187.521 49.184 189.093 49.052 A 14.46 14.46 0 0 1 190.3 49 A 7.201 7.201 0 0 1 191.724 49.128 Q 193.931 49.576 194.171 51.587 A 4.338 4.338 0 0 1 194.2 52.1 Q 194.2 57.053 188.221 63.245 A 49.944 49.944 0 0 1 186 65.4 Q 177.8 72.9 167.6 76.8 Q 167.215 76.897 166.922 77.458 A 2.781 2.781 0 0 0 166.9 77.5 A 28.831 28.831 0 0 0 165.957 80.566 Q 165.4 82.85 165.4 84.8 A 7.055 7.055 0 0 0 165.509 86.103 Q 165.943 88.4 168.1 88.4 A 7.943 7.943 0 0 0 170.891 87.828 Q 173.401 86.878 176.564 84.356 A 50.088 50.088 0 0 0 179.4 81.9 Q 184.604 77.089 194.243 66.108 Z M 210 138.3 L 210.7 137.3 A 449.36 449.36 0 0 0 218.364 124.832 Q 222.892 117.205 227.734 108.47 A 819.356 819.356 0 0 0 232.2 100.3 A 143.716 143.716 0 0 0 223.735 108.313 Q 216.972 115.294 213 121.7 A 32.707 32.707 0 0 0 212.415 122.614 Q 211.822 123.571 211.1 124.85 Q 210.271 126.321 208.987 129.382 A 141.675 141.675 0 0 0 208.1 131.55 A 35.998 35.998 0 0 0 207.098 134.368 Q 206.2 137.3 206.2 139.5 A 7.356 7.356 0 0 0 206.218 140.035 Q 206.303 141.2 206.8 141.2 A 0.819 0.819 0 0 0 207.096 141.135 Q 207.517 140.97 208.16 140.381 A 10.199 10.199 0 0 0 208.3 140.25 A 13.872 13.872 0 0 0 209.433 139.043 A 11.56 11.56 0 0 0 210 138.3 Z M 221.9 52.5 L 221.8 52.2 Q 221.1 51.8 220.2 51.8 Q 215.9 51.8 209.55 58.2 Q 203.2 64.6 198.75 71.95 A 70.571 70.571 0 0 0 197.016 74.968 Q 194.538 79.559 194.321 82.042 A 5.26 5.26 0 0 0 194.3 82.5 A 2.614 2.614 0 0 0 194.346 83.011 Q 194.506 83.814 195.235 83.892 A 1.541 1.541 0 0 0 195.4 83.9 Q 196.6 83.9 198.5 82.2 Q 198.959 81.818 199.683 81.171 A 107.215 107.215 0 0 0 200.15 80.75 A 29.059 29.059 0 0 0 200.703 80.234 Q 201.856 79.133 204.2 76.75 Q 207.2 73.7 209.95 70.45 Q 212.7 67.2 216.05 62.4 Q 219.4 57.6 221.8 52.9 A 0.963 0.963 0 0 0 221.881 52.675 A 0.817 0.817 0 0 0 221.9 52.5 Z M 77.1 54.1 L 76.6 54.5 Q 73.5 57.2 68.85 64.35 A 105.351 105.351 0 0 0 67.27 66.851 Q 64.213 71.855 64.2 73.487 A 1.741 1.741 0 0 0 64.2 73.5 A 1.201 1.201 0 0 0 64.207 73.634 Q 64.237 73.9 64.4 73.9 A 1.487 1.487 0 0 0 64.732 73.853 Q 65.272 73.724 66.315 73.248 A 31.427 31.427 0 0 0 67.05 72.9 A 9.806 9.806 0 0 0 68.188 72.232 Q 70.022 71.003 72.825 68.321 A 80.411 80.411 0 0 0 72.95 68.2 A 29.053 29.053 0 0 0 77.653 62.262 A 35.933 35.933 0 0 0 79.4 59 A 15.319 15.319 0 0 0 80.083 57.353 Q 80.6 55.847 80.6 54.6 A 3.83 3.83 0 0 0 80.565 54.057 Q 80.413 53 79.6 53 Q 79 53 78.25 53.35 Q 77.5 53.7 77.1 54.1 Z M 181.6 54.1 L 181.1 54.5 Q 178 57.2 173.35 64.35 A 105.351 105.351 0 0 0 171.77 66.851 Q 168.713 71.855 168.7 73.487 A 1.741 1.741 0 0 0 168.7 73.5 A 1.201 1.201 0 0 0 168.707 73.634 Q 168.737 73.9 168.9 73.9 A 1.487 1.487 0 0 0 169.232 73.853 Q 169.772 73.724 170.815 73.248 A 31.427 31.427 0 0 0 171.55 72.9 A 9.806 9.806 0 0 0 172.688 72.232 Q 174.522 71.003 177.325 68.321 A 80.411 80.411 0 0 0 177.45 68.2 A 29.053 29.053 0 0 0 182.153 62.262 A 35.933 35.933 0 0 0 183.9 59 A 15.319 15.319 0 0 0 184.583 57.353 Q 185.1 55.847 185.1 54.6 A 3.83 3.83 0 0 0 185.065 54.057 Q 184.913 53 184.1 53 Q 183.5 53 182.75 53.35 Q 182 53.7 181.6 54.1 Z"
            vector-effect="non-scaling-stroke" />
    </g>
</svg>